<svg width="108" height="75" viewBox="0 0 108 75" fill="none" xmlns="http://www.w3.org/2000/svg">
<path d="M53.4922 37.5011C53.4922 43.8011 52.8089 49.2845 51.4422 53.9511C50.1089 58.5845 48.2422 62.4178 45.8422 65.4511C43.4755 68.4845 40.6589 70.7511 37.3922 72.2511C34.1589 73.7178 30.6589 74.4511 26.8922 74.4511C23.1255 74.4511 19.6255 73.7178 16.3922 72.2511C13.1922 70.7511 10.4089 68.4845 8.04219 65.4511C5.67552 62.4178 3.82552 58.5845 2.49219 53.9511C1.15885 49.2845 0.492188 43.8011 0.492188 37.5011C0.492188 31.1678 1.15885 25.6845 2.49219 21.0511C3.82552 16.4178 5.67552 12.5845 8.04219 9.55112C10.4089 6.51779 13.1922 4.26779 16.3922 2.80112C19.6255 1.30112 23.1255 0.551122 26.8922 0.551122C30.6589 0.551122 34.1589 1.30112 37.3922 2.80112C40.6589 4.26779 43.4755 6.51779 45.8422 9.55112C48.2422 12.5845 50.1089 16.4178 51.4422 21.0511C52.8089 25.6845 53.4922 31.1678 53.4922 37.5011ZM40.7422 37.5011C40.7422 32.2678 40.3589 27.9345 39.5922 24.5011C38.8255 21.0678 37.7922 18.3345 36.4922 16.3011C35.2255 14.2678 33.7589 12.8511 32.0922 12.0511C30.4255 11.2178 28.6922 10.8011 26.8922 10.8011C25.1255 10.8011 23.4089 11.2178 21.7422 12.0511C20.1089 12.8511 18.6589 14.2678 17.3922 16.3011C16.1255 18.3345 15.1089 21.0678 14.3422 24.5011C13.6089 27.9345 13.2422 32.2678 13.2422 37.5011C13.2422 42.7345 13.6089 47.0678 14.3422 50.5011C15.1089 53.9345 16.1255 56.6678 17.3922 58.7011C18.6589 60.7345 20.1089 62.1678 21.7422 63.0011C23.4089 63.8011 25.1255 64.2011 26.8922 64.2011C28.6922 64.2011 30.4255 63.8011 32.0922 63.0011C33.7589 62.1678 35.2255 60.7345 36.4922 58.7011C37.7922 56.6678 38.8255 53.9345 39.5922 50.5011C40.3589 47.0678 40.7422 42.7345 40.7422 37.5011Z" fill="#F5F5F5"/>
<path d="M107.75 64.4011V73.6511H67.75V64.4011H82.4V22.2511C82.4 20.5845 82.45 18.8678 82.55 17.1011L72.15 25.8011C71.55 26.2678 70.95 26.5678 70.35 26.7011C69.7833 26.8011 69.2333 26.8011 68.7 26.7011C68.2 26.6011 67.75 26.4345 67.35 26.2011C66.95 25.9345 66.65 25.6511 66.45 25.3511L62.55 20.0011L84.6 1.25112H94.75V64.4011H107.75Z" fill="#11112A"/>
</svg>
