<svg width="110" height="75" viewBox="0 0 110 75" fill="none" xmlns="http://www.w3.org/2000/svg">
<path d="M53.4922 37.702C53.4922 44.002 52.8089 49.4854 51.4422 54.152C50.1089 58.7854 48.2422 62.6187 45.8422 65.6521C43.4755 68.6854 40.6589 70.9521 37.3922 72.4521C34.1589 73.9187 30.6589 74.6521 26.8922 74.6521C23.1255 74.6521 19.6255 73.9187 16.3922 72.4521C13.1922 70.9521 10.4089 68.6854 8.04219 65.6521C5.67552 62.6187 3.82552 58.7854 2.49219 54.152C1.15885 49.4854 0.492188 44.002 0.492188 37.702C0.492188 31.3687 1.15885 25.8854 2.49219 21.252C3.82552 16.6187 5.67552 12.7854 8.04219 9.75205C10.4089 6.71872 13.1922 4.46872 16.3922 3.00205C19.6255 1.50205 23.1255 0.75205 26.8922 0.75205C30.6589 0.75205 34.1589 1.50205 37.3922 3.00205C40.6589 4.46872 43.4755 6.71872 45.8422 9.75205C48.2422 12.7854 50.1089 16.6187 51.4422 21.252C52.8089 25.8854 53.4922 31.3687 53.4922 37.702ZM40.7422 37.702C40.7422 32.4687 40.3589 28.1354 39.5922 24.702C38.8255 21.2687 37.7922 18.5354 36.4922 16.502C35.2255 14.4687 33.7589 13.052 32.0922 12.252C30.4255 11.4187 28.6922 11.002 26.8922 11.002C25.1255 11.002 23.4089 11.4187 21.7422 12.252C20.1089 13.052 18.6589 14.4687 17.3922 16.502C16.1255 18.5354 15.1089 21.2687 14.3422 24.702C13.6089 28.1354 13.2422 32.4687 13.2422 37.702C13.2422 42.9354 13.6089 47.2687 14.3422 50.702C15.1089 54.1354 16.1255 56.8687 17.3922 58.902C18.6589 60.9354 20.1089 62.3687 21.7422 63.2021C23.4089 64.0021 25.1255 64.4021 26.8922 64.4021C28.6922 64.4021 30.4255 64.0021 32.0922 63.2021C33.7589 62.3687 35.2255 60.9354 36.4922 58.902C37.7922 56.8687 38.8255 54.1354 39.5922 50.702C40.3589 47.2687 40.7422 42.9354 40.7422 37.702Z" fill="white"/>
<path d="M105.05 62.3521C106.383 62.3521 107.433 62.7354 108.2 63.502C109 64.2354 109.4 65.2187 109.4 66.4521V73.8521H59.8V69.7521C59.8 68.9187 59.9667 68.0521 60.3 67.1521C60.6667 66.2187 61.2333 65.3854 62 64.6521L83.95 42.6521C85.7833 40.7854 87.4167 39.0021 88.85 37.3021C90.3167 35.602 91.5333 33.9187 92.5 32.252C93.4667 30.5854 94.2 28.902 94.7 27.202C95.2333 25.4687 95.5 23.652 95.5 21.752C95.5 20.0187 95.25 18.502 94.75 17.202C94.25 15.8687 93.5333 14.752 92.6 13.852C91.7 12.952 90.6 12.2854 89.3 11.8521C88.0333 11.3854 86.6 11.152 85 11.152C83.5333 11.152 82.1667 11.3687 80.9 11.802C79.6667 12.202 78.5667 12.7854 77.6 13.552C76.6333 14.2854 75.8167 15.152 75.15 16.152C74.4833 17.152 73.9833 18.252 73.65 19.452C73.0833 20.9854 72.35 22.002 71.45 22.502C70.55 23.002 69.25 23.1187 67.55 22.852L61.05 21.702C61.55 18.2354 62.5167 15.202 63.95 12.602C65.3833 9.96872 67.1667 7.78538 69.3 6.05205C71.4667 4.28538 73.9333 2.96872 76.7 2.10205C79.5 1.20205 82.5 0.75205 85.7 0.75205C89.0333 0.75205 92.0833 1.25205 94.85 2.25205C97.6167 3.21871 99.9833 4.60205 101.95 6.40205C103.917 8.20205 105.45 10.3687 106.55 12.902C107.65 15.4354 108.2 18.252 108.2 21.352C108.2 24.0187 107.8 26.4854 107 28.752C106.233 31.0187 105.183 33.1854 103.85 35.2521C102.55 37.3187 101.017 39.3187 99.25 41.2521C97.4833 43.1854 95.6333 45.152 93.7 47.152L77.4 63.8021C78.9667 63.3354 80.5167 62.9854 82.05 62.752C83.6167 62.4854 85.1 62.3521 86.5 62.3521H105.05Z" fill="#11112A"/>
</svg>
