<svg width="110" height="75" viewBox="0 0 110 75" fill="none" xmlns="http://www.w3.org/2000/svg">
<path d="M53.4922 37.903C53.4922 44.203 52.8089 49.6863 51.4422 54.353C50.1089 58.9863 48.2422 62.8196 45.8422 65.853C43.4755 68.8863 40.6589 71.153 37.3922 72.653C34.1589 74.1196 30.6589 74.853 26.8922 74.853C23.1255 74.853 19.6255 74.1196 16.3922 72.653C13.1922 71.153 10.4089 68.8863 8.04219 65.853C5.67552 62.8196 3.82552 58.9863 2.49219 54.353C1.15885 49.6863 0.492188 44.203 0.492188 37.903C0.492188 31.5696 1.15885 26.0863 2.49219 21.453C3.82552 16.8196 5.67552 12.9863 8.04219 9.95298C10.4089 6.91964 13.1922 4.66964 16.3922 3.20298C19.6255 1.70298 23.1255 0.952978 26.8922 0.952978C30.6589 0.952978 34.1589 1.70298 37.3922 3.20298C40.6589 4.66964 43.4755 6.91964 45.8422 9.95298C48.2422 12.9863 50.1089 16.8196 51.4422 21.453C52.8089 26.0863 53.4922 31.5696 53.4922 37.903ZM40.7422 37.903C40.7422 32.6696 40.3589 28.3363 39.5922 24.903C38.8255 21.4696 37.7922 18.7363 36.4922 16.703C35.2255 14.6696 33.7589 13.253 32.0922 12.453C30.4255 11.6196 28.6922 11.203 26.8922 11.203C25.1255 11.203 23.4089 11.6196 21.7422 12.453C20.1089 13.253 18.6589 14.6696 17.3922 16.703C16.1255 18.7363 15.1089 21.4696 14.3422 24.903C13.6089 28.3363 13.2422 32.6696 13.2422 37.903C13.2422 43.1363 13.6089 47.4696 14.3422 50.903C15.1089 54.3363 16.1255 57.0696 17.3922 59.103C18.6589 61.1363 20.1089 62.5696 21.7422 63.403C23.4089 64.203 25.1255 64.603 26.8922 64.603C28.6922 64.603 30.4255 64.203 32.0922 63.403C33.7589 62.5696 35.2255 61.1363 36.4922 59.103C37.7922 57.0696 38.8255 54.3363 39.5922 50.903C40.3589 47.4696 40.7422 43.1363 40.7422 37.903Z" fill="#F5F5F5"/>
<path d="M61.4 21.903C61.9 18.4363 62.8667 15.403 64.3 12.803C65.7333 10.1696 67.5167 7.98631 69.65 6.25298C71.8167 4.48631 74.2833 3.16964 77.05 2.30298C79.85 1.40298 82.85 0.952978 86.05 0.952978C89.3833 0.952978 92.3833 1.43631 95.05 2.40297C97.75 3.33631 100.05 4.65297 101.95 6.35297C103.85 8.01964 105.3 9.98631 106.3 12.253C107.333 14.5196 107.85 16.9696 107.85 19.603C107.85 21.903 107.583 23.9363 107.05 25.703C106.55 27.4363 105.817 28.953 104.85 30.253C103.883 31.553 102.683 32.653 101.25 33.553C99.8167 34.453 98.2 35.203 96.4 35.803C100.733 37.1696 103.967 39.253 106.1 42.053C108.233 44.853 109.3 48.3696 109.3 52.603C109.3 56.203 108.633 59.3863 107.3 62.153C105.967 64.9196 104.167 67.253 101.9 69.153C99.6333 71.0196 97 72.4363 94 73.403C91.0333 74.3696 87.8833 74.853 84.55 74.853C80.9167 74.853 77.75 74.4363 75.05 73.603C72.35 72.7696 70 71.5363 68 69.903C66 68.2696 64.3 66.2696 62.9 63.903C61.5 61.5363 60.3 58.803 59.3 55.703L64.75 53.453C66.1833 52.853 67.5167 52.703 68.75 53.003C70.0167 53.2696 70.9333 53.9363 71.5 55.003C72.1 56.1696 72.75 57.3196 73.45 58.453C74.1833 59.5863 75.05 60.603 76.05 61.503C77.05 62.3696 78.2167 63.0863 79.55 63.653C80.9167 64.1863 82.5333 64.453 84.4 64.453C86.5 64.453 88.3333 64.1196 89.9 63.453C91.4667 62.753 92.7667 61.853 93.8 60.753C94.8667 59.653 95.65 58.4363 96.15 57.103C96.6833 55.7363 96.95 54.3696 96.95 53.003C96.95 51.2696 96.7667 49.703 96.4 48.303C96.0333 46.8696 95.2667 45.653 94.1 44.653C92.9333 43.653 91.25 42.8696 89.05 42.303C86.8833 41.7363 83.9667 41.453 80.3 41.453V32.653C83.3333 32.6196 85.85 32.3363 87.85 31.803C89.85 31.2696 91.4333 30.5363 92.6 29.603C93.8 28.6363 94.6333 27.4863 95.1 26.153C95.5667 24.8196 95.8 23.353 95.8 21.753C95.8 18.353 94.85 15.7696 92.95 14.003C91.05 12.2363 88.5167 11.353 85.35 11.353C83.8833 11.353 82.5333 11.5696 81.3 12.003C80.0667 12.403 78.95 12.9863 77.95 13.753C76.9833 14.4863 76.1667 15.353 75.5 16.353C74.8333 17.353 74.3333 18.453 74 19.653C73.4333 21.1863 72.6833 22.203 71.75 22.703C70.85 23.203 69.5667 23.3196 67.9 23.053L61.4 21.903Z" fill="#11112A"/>
</svg>
