<svg width="112" height="75" viewBox="0 0 112 75" fill="none" xmlns="http://www.w3.org/2000/svg">
<path d="M53.4922 37.1034C53.4922 43.4034 52.8089 48.8867 51.4422 53.5534C50.1089 58.1868 48.2422 62.0201 45.8422 65.0534C43.4755 68.0868 40.6589 70.3534 37.3922 71.8534C34.1589 73.3201 30.6589 74.0534 26.8922 74.0534C23.1255 74.0534 19.6255 73.3201 16.3922 71.8534C13.1922 70.3534 10.4089 68.0868 8.04219 65.0534C5.67552 62.0201 3.82552 58.1868 2.49219 53.5534C1.15885 48.8867 0.492188 43.4034 0.492188 37.1034C0.492188 30.7701 1.15885 25.2867 2.49219 20.6534C3.82552 16.0201 5.67552 12.1867 8.04219 9.15341C10.4089 6.12008 13.1922 3.87008 16.3922 2.40342C19.6255 0.903417 23.1255 0.153417 26.8922 0.153417C30.6589 0.153417 34.1589 0.903417 37.3922 2.40342C40.6589 3.87008 43.4755 6.12008 45.8422 9.15341C48.2422 12.1867 50.1089 16.0201 51.4422 20.6534C52.8089 25.2867 53.4922 30.7701 53.4922 37.1034ZM40.7422 37.1034C40.7422 31.8701 40.3589 27.5367 39.5922 24.1034C38.8255 20.6701 37.7922 17.9367 36.4922 15.9034C35.2255 13.8701 33.7589 12.4534 32.0922 11.6534C30.4255 10.8201 28.6922 10.4034 26.8922 10.4034C25.1255 10.4034 23.4089 10.8201 21.7422 11.6534C20.1089 12.4534 18.6589 13.8701 17.3922 15.9034C16.1255 17.9367 15.1089 20.6701 14.3422 24.1034C13.6089 27.5367 13.2422 31.8701 13.2422 37.1034C13.2422 42.3367 13.6089 46.6701 14.3422 50.1034C15.1089 53.5368 16.1255 56.2701 17.3922 58.3034C18.6589 60.3368 20.1089 61.7701 21.7422 62.6034C23.4089 63.4034 25.1255 63.8034 26.8922 63.8034C28.6922 63.8034 30.4255 63.4034 32.0922 62.6034C33.7589 61.7701 35.2255 60.3368 36.4922 58.3034C37.7922 56.2701 38.8255 53.5368 39.5922 50.1034C40.3589 46.6701 40.7422 42.3367 40.7422 37.1034Z" fill="white"/>
<path d="M91.6 46.0034V22.3534C91.6 20.1201 91.75 17.6534 92.05 14.9534L69.6 46.0034H91.6ZM111.45 46.0034V53.1534C111.45 53.8201 111.233 54.4034 110.8 54.9034C110.367 55.3701 109.75 55.6034 108.95 55.6034H102.35V73.2534H91.6V55.6034H61.1C60.2667 55.6034 59.5333 55.3534 58.9 54.8534C58.2667 54.3201 57.8667 53.6701 57.7 52.9034L56.4 46.6534L90.65 0.903417H102.35V46.0034H111.45Z" fill="#11112A"/>
</svg>
