<svg width="109" height="75" viewBox="0 0 109 75" fill="none" xmlns="http://www.w3.org/2000/svg">
<path d="M53.4922 37.3041C53.4922 43.6041 52.8089 49.0874 51.4422 53.7541C50.1089 58.3874 48.2422 62.2208 45.8422 65.2541C43.4755 68.2874 40.6589 70.5541 37.3922 72.0541C34.1589 73.5208 30.6589 74.2541 26.8922 74.2541C23.1255 74.2541 19.6255 73.5208 16.3922 72.0541C13.1922 70.5541 10.4089 68.2874 8.04219 65.2541C5.67552 62.2208 3.82552 58.3874 2.49219 53.7541C1.15885 49.0874 0.492188 43.6041 0.492188 37.3041C0.492188 30.9708 1.15885 25.4874 2.49219 20.8541C3.82552 16.2208 5.67552 12.3874 8.04219 9.3541C10.4089 6.32077 13.1922 4.07077 16.3922 2.6041C19.6255 1.1041 23.1255 0.354101 26.8922 0.354101C30.6589 0.354101 34.1589 1.1041 37.3922 2.6041C40.6589 4.07077 43.4755 6.32077 45.8422 9.3541C48.2422 12.3874 50.1089 16.2208 51.4422 20.8541C52.8089 25.4874 53.4922 30.9708 53.4922 37.3041ZM40.7422 37.3041C40.7422 32.0708 40.3589 27.7374 39.5922 24.3041C38.8255 20.8708 37.7922 18.1374 36.4922 16.1041C35.2255 14.0708 33.7589 12.6541 32.0922 11.8541C30.4255 11.0208 28.6922 10.6041 26.8922 10.6041C25.1255 10.6041 23.4089 11.0208 21.7422 11.8541C20.1089 12.6541 18.6589 14.0708 17.3922 16.1041C16.1255 18.1374 15.1089 20.8708 14.3422 24.3041C13.6089 27.7374 13.2422 32.0708 13.2422 37.3041C13.2422 42.5374 13.6089 46.8708 14.3422 50.3041C15.1089 53.7374 16.1255 56.4708 17.3922 58.5041C18.6589 60.5374 20.1089 61.9708 21.7422 62.8041C23.4089 63.6041 25.1255 64.0041 26.8922 64.0041C28.6922 64.0041 30.4255 63.6041 32.0922 62.8041C33.7589 61.9708 35.2255 60.5374 36.4922 58.5041C37.7922 56.4708 38.8255 53.7374 39.5922 50.3041C40.3589 46.8708 40.7422 42.5374 40.7422 37.3041Z" fill="white"/>
<path d="M76.3 27.4041C77.9 27.0708 79.4333 26.8374 80.9 26.7041C82.3667 26.5374 83.7833 26.4541 85.15 26.4541C88.95 26.4541 92.3 27.0208 95.2 28.1541C98.1 29.2874 100.533 30.8541 102.5 32.8541C104.467 34.8541 105.95 37.2041 106.95 39.9041C107.95 42.5708 108.45 45.4541 108.45 48.5541C108.45 52.3874 107.767 55.8874 106.4 59.0541C105.067 62.2208 103.2 64.9374 100.8 67.2041C98.4 69.4374 95.55 71.1708 92.25 72.4041C88.9833 73.6374 85.4167 74.2541 81.55 74.2541C79.2833 74.2541 77.1333 74.0208 75.1 73.5541C73.0667 73.0874 71.15 72.4708 69.35 71.7041C67.5833 70.9041 65.9333 70.0041 64.4 69.0041C62.9 67.9708 61.55 66.8874 60.35 65.7541L64.15 60.5041C64.95 59.3708 66 58.8041 67.3 58.8041C68.1333 58.8041 68.9833 59.0708 69.85 59.6041C70.7167 60.1374 71.7 60.7208 72.8 61.3541C73.9333 61.9874 75.25 62.5708 76.75 63.1041C78.2833 63.6374 80.1167 63.9041 82.25 63.9041C84.5167 63.9041 86.5167 63.5374 88.25 62.8041C89.9833 62.0708 91.4167 61.0541 92.55 59.7541C93.7167 58.4208 94.5833 56.8541 95.15 55.0541C95.75 53.2208 96.05 51.2374 96.05 49.1041C96.05 45.1708 94.9 42.1041 92.6 39.9041C90.3333 37.6708 86.9667 36.5541 82.5 36.5541C79.0667 36.5541 75.55 37.1874 71.95 38.4541L64.25 36.2541L70.25 1.1541H105.95V6.4041C105.95 8.17076 105.4 9.6041 104.3 10.7041C103.2 11.8041 101.333 12.3541 98.7 12.3541H78.85L76.3 27.4041Z" fill="#11112A"/>
</svg>
