<svg width="70" height="68" viewBox="0 0 70 68" fill="none" xmlns="http://www.w3.org/2000/svg">
<g opacity="0.5" clip-path="url(#clip0_1_1667)">
<path d="M1.11822 31.5867L26.3839 7.36125C27.1051 6.66973 28.0663 6.29016 29.0913 6.29016C30.1174 6.29016 31.0781 6.67028 31.7993 7.36125L34.0932 9.56123C34.8139 10.2517 35.2109 11.1739 35.2109 12.1571C35.2109 13.1399 34.8139 14.0932 34.0932 14.7836L19.3536 28.9471H66.1821C68.2934 28.9471 69.9617 30.532 69.9617 32.5569V35.6671C69.9617 37.692 68.2934 39.4366 66.1821 39.4366H19.1864L34.0927 53.6792C34.8133 54.3707 35.2103 55.2679 35.2103 56.2511C35.2103 57.2333 34.8133 58.1435 34.0927 58.8345L31.7987 61.0274C31.0775 61.7189 30.1168 62.0958 29.0907 62.0958C28.0658 62.0958 27.1045 61.714 26.3833 61.0225L1.11765 36.7976C0.394722 36.1039 -0.00286102 35.1779 -2.28882e-05 34.1935C-0.00229645 33.2059 0.394714 32.2793 1.11822 31.5867Z" fill="white"/>
</g>
<defs>
<clipPath id="clip0_1_1667">
<rect width="69.9617" height="67.0798" fill="white" transform="matrix(-1 0 0 1 69.9617 0.653076)"/>
</clipPath>
</defs>
</svg>
