<svg width="80" height="68" viewBox="0 0 80 68" fill="none" xmlns="http://www.w3.org/2000/svg">
<path d="M78.7213 30.8915L49.8305 2.00004C49.0058 1.17534 47.9066 0.722656 46.7346 0.722656C45.5613 0.722656 44.4627 1.17599 43.638 2.00004L41.015 4.62376C40.1909 5.44717 39.7369 6.547 39.7369 7.71967C39.7369 8.8917 40.1909 10.0286 41.015 10.852L57.8694 27.7436H4.32192C1.90763 27.7436 0 29.6336 0 32.0486V35.7578C0 38.1728 1.90763 40.2534 4.32192 40.2534H58.0607L41.0156 57.2393C40.1915 58.064 39.7376 59.1339 39.7376 60.3066C39.7376 61.4779 40.1915 62.5635 41.0156 63.3875L43.6387 66.0028C44.4634 66.8275 45.5619 67.2769 46.7352 67.2769C47.9073 67.2769 49.0064 66.8216 49.8311 65.9969L78.722 37.1061C79.5486 36.2788 80.0033 35.1744 80 34.0004C80.0026 32.8226 79.5486 31.7175 78.7213 30.8915Z" fill="white"/>
</svg>
